<svg width="1024" height="1024" viewBox="0 0 1024 1024" fill="none" xmlns="http://www.w3.org/2000/svg">
  <defs>
    <linearGradient id="olive" x1="321" y1="184" x2="657" y2="586" gradientUnits="userSpaceOnUse">
      <stop stop-color="#4f731c"/>
      <stop offset="1" stop-color="#2e4714"/>
    </linearGradient>
    <linearGradient id="lime" x1="232" y1="560" x2="431" y2="812" gradientUnits="userSpaceOnUse">
      <stop stop-color="#bfff31"/>
      <stop offset="1" stop-color="#95c91f"/>
    </linearGradient>
    <linearGradient id="cyan" x1="710" y1="360" x2="528" y2="846" gradientUnits="userSpaceOnUse">
      <stop stop-color="#63cfff"/>
      <stop offset="1" stop-color="#43add6"/>
    </linearGradient>
    <filter id="softShadow" x="160" y="150" width="720" height="760" filterUnits="userSpaceOnUse" color-interpolation-filters="sRGB">
      <feDropShadow dx="0" dy="18" stdDeviation="18" flood-color="#344221" flood-opacity="0.14"/>
    </filter>
  </defs>

  <rect width="1024" height="1024" rx="112" fill="#FFFDF6"/>

  <g filter="url(#softShadow)">
    <path
      d="M386 186C376 186 366 191 361 200L244 405C236 419 241 437 256 444L448 537C462 544 480 538 488 524L609 312C617 299 631 291 646 291H777C793 291 803 274 795 260L757 199C752 191 743 186 733 186H386Z"
      fill="url(#olive)"
    />
    <path
      d="M219 516C213 505 225 493 236 499L464 612C478 619 483 636 475 649L401 774C396 783 386 789 376 789H326C315 789 305 783 300 773L219 516Z"
      fill="url(#lime)"
    />
    <path
      d="M682 371C693 371 703 377 708 387L803 561C808 571 808 582 802 592L661 832C656 841 646 847 635 847H474C458 847 448 830 456 816L698 386C705 377 693 371 682 371Z"
      fill="url(#cyan)"
    />
  </g>
</svg>
