<svg width="1024" height="1024" viewBox="0 0 1024 1024" fill="none" xmlns="http://www.w3.org/2000/svg">
  <rect width="1024" height="1024" rx="192" fill="#060706"/>
  <circle cx="512" cy="512" r="356" stroke="#C7FF45" stroke-width="18" stroke-dasharray="72 34" opacity="0.92"/>
  <circle cx="512" cy="512" r="278" stroke="#F4F0E8" stroke-width="3" opacity="0.18"/>
  <path d="M270 262H420L512 640L604 262H754L594 762H430L270 262Z" fill="#F4F0E8"/>
  <path d="M420 262L512 640L604 262H754L594 762H512V640L420 262Z" fill="#C7FF45"/>
  <path d="M398 262H476L512 410L548 262H626L543 526H481L398 262Z" fill="#060706" opacity="0.42"/>
  <circle cx="512" cy="512" r="74" fill="#060706" stroke="#C7FF45" stroke-width="14"/>
  <circle cx="512" cy="512" r="24" fill="#70D6FF"/>
  <path d="M512 438V324" stroke="#70D6FF" stroke-width="12" stroke-linecap="round"/>
  <path d="M576 549L681 609" stroke="#70D6FF" stroke-width="12" stroke-linecap="round"/>
  <path d="M448 549L343 609" stroke="#70D6FF" stroke-width="12" stroke-linecap="round"/>
  <circle cx="512" cy="300" r="34" fill="#C7FF45" stroke="#060706" stroke-width="10"/>
  <circle cx="708" cy="625" r="34" fill="#C7FF45" stroke="#060706" stroke-width="10"/>
  <circle cx="316" cy="625" r="34" fill="#C7FF45" stroke="#060706" stroke-width="10"/>
  <circle cx="244" cy="360" r="18" fill="#FF6F61"/>
  <circle cx="780" cy="360" r="18" fill="#FF6F61"/>
  <circle cx="512" cy="838" r="18" fill="#FF6F61"/>
  <path d="M210 512C210 345.21 345.21 210 512 210" stroke="#70D6FF" stroke-width="8" stroke-linecap="round" opacity="0.7"/>
  <path d="M814 512C814 678.79 678.79 814 512 814" stroke="#70D6FF" stroke-width="8" stroke-linecap="round" opacity="0.7"/>
</svg>
